<svg width="70" height="70" viewBox="0 0 70 70" fill="none" xmlns="http://www.w3.org/2000/svg">
<g id="quality">
<path id="Vector" d="M46.3874 52.3067V63.1072L51.562 65.2609V49.4764C49.9365 50.5912 48.2029 51.5394 46.3874 52.3067ZM18.4375 49.4764V65.1532L23.6121 62.9995V52.3067C21.7966 51.5394 20.0629 50.5912 18.4375 49.4764ZM34.9997 54.6044C32.5562 54.6057 30.1221 54.3016 27.754 53.6992V70L34.9997 66.9844L42.2453 69.9999V53.6992C39.8773 54.3016 37.4432 54.6057 34.9997 54.6044ZM34.9997 0C21.0872 0 9.76855 11.3187 9.76855 25.2313C9.76855 39.1439 21.0872 50.4624 34.9997 50.4624C48.9122 50.4624 60.2309 39.1437 60.2309 25.2311C60.2309 11.3185 48.9123 0 34.9997 0ZM34.9997 45.1308C23.9702 45.1308 14.9969 36.1575 14.9969 25.128C14.9969 14.0984 23.9702 5.12517 34.9997 5.12517C46.0292 5.12517 55.0024 14.0984 55.0024 25.128C55.0024 36.1577 46.0293 45.1308 34.9997 45.1308ZM34.9997 9.26705C26.2541 9.26705 19.1388 16.3822 19.1388 25.128C19.1388 33.8739 26.2541 40.9887 34.9997 40.9887C43.7453 40.9887 50.8605 33.8736 50.8605 25.1279C50.8605 16.3822 43.7454 9.26705 34.9997 9.26705ZM41.5186 34.3847L34.9997 30.9576L28.4809 34.3847L29.7259 27.126L24.4521 21.9854L31.7404 20.9263L34.9997 14.3219L38.259 20.9263L45.5474 21.9854L40.2736 27.126L41.5186 34.3847Z" fill="#C5A463"/>
</g>
</svg>
