<svg width="72" height="90" viewBox="0 0 72 90" fill="none" xmlns="http://www.w3.org/2000/svg">
<circle cx="35.7353" cy="35.7353" r="35.7353" fill="#1C1D1D"/>
<path d="M35.7353 83.3828L27.7118 69.4858L43.7588 69.4858L35.7353 83.3828Z" fill="#1C1D1D"/>
<ellipse cx="35.6762" cy="35.625" rx="22.5326" ry="22.5" fill="#1C1D1D"/>
<mask id="mask0_239_4873" style="mask-type:alpha" maskUnits="userSpaceOnUse" x="13" y="13" width="46" height="46">
<ellipse cx="35.6752" cy="35.625" rx="22.5326" ry="22.5" fill="white"/>
</mask>
<g mask="url(#mask0_239_4873)">
<rect x="52.9415" y="21.1768" width="38.3824" height="37.0588" fill="#1C1D1D"/>
</g>
<path d="M43.4603 24.808H60.5505C60.5925 24.8119 60.6349 24.8071 60.675 24.7939C60.715 24.7808 60.7518 24.7596 60.783 24.7317C60.8143 24.7038 60.8392 24.6699 60.8563 24.632C60.8733 24.5942 60.8821 24.5532 60.8821 24.5118C60.8821 24.4704 60.8733 24.4295 60.8563 24.3916C60.8392 24.3538 60.8143 24.3198 60.783 24.2919C60.7518 24.2641 60.715 24.2429 60.675 24.2297C60.6349 24.2166 60.5925 24.2118 60.5505 24.2156H44.0673L45.2159 23.0898H60.5505C60.6303 23.0898 60.7068 23.0588 60.7632 23.0035C60.8197 22.9481 60.8514 22.8731 60.8514 22.7949C60.8514 22.7167 60.8197 22.6417 60.7632 22.5864C60.7068 22.5311 60.6303 22.5 60.5505 22.5H37.8639C37.577 22.4999 37.293 22.5553 37.0281 22.6631C36.7632 22.771 36.5226 22.929 36.3202 23.1283L10.6797 48.4346C10.6355 48.479 10.6055 48.5352 10.5937 48.5962C10.5818 48.6573 10.5886 48.7203 10.6132 48.7776C10.6378 48.8348 10.6791 48.8836 10.7319 48.918C10.7847 48.9523 10.8466 48.9706 10.91 48.9706H13.4243C14.9989 48.9705 16.5092 48.3581 17.6236 47.2678L26.7809 38.2921C27.7847 37.31 29.1408 36.7522 30.559 36.738H32.3119C32.6937 36.7372 33.0744 36.7768 33.4474 36.856C34.315 37.0382 35.1236 37.4266 35.8022 37.9869C35.8781 38.0485 35.9539 38.1177 36.0272 38.1844L36.451 38.5767L37.6755 39.7077L38.3139 40.2975L39.5384 41.4284L40.1742 42.0183L41.396 43.1543L42.037 43.7467L43.2589 44.8751L43.8973 45.4675L45.1112 46.6061L45.747 47.196L45.8752 47.3114C46.3197 47.7285 46.8283 48.0746 47.3823 48.3372C48.183 48.7119 49.059 48.9064 49.9463 48.9065H60.5296C60.6116 48.9073 60.6908 48.8771 60.7507 48.8222C60.8106 48.7672 60.8467 48.6918 60.8514 48.6116C60.8562 48.5642 60.8497 48.5164 60.8324 48.4719C60.8152 48.4274 60.7876 48.3874 60.7519 48.3551L59.5092 47.1985H60.5557C60.6174 47.201 60.6784 47.1847 60.7304 47.152C60.7824 47.1193 60.8228 47.0717 60.8463 47.0157C60.8697 46.9597 60.875 46.898 60.8614 46.8389C60.8478 46.7799 60.816 46.7264 60.7703 46.6856C60.7134 46.6298 60.6362 46.5985 60.5557 46.5984H58.8812L57.6698 45.4675H60.5479C60.6277 45.4675 60.7042 45.4364 60.7606 45.3811C60.8171 45.3258 60.8487 45.2508 60.8487 45.1726C60.8486 45.0942 60.8177 45.0189 60.7624 44.9623C60.7055 44.9065 60.6283 44.8751 60.5479 44.8751H57.0315L55.8175 43.7467H60.5505C60.5902 43.7467 60.6296 43.739 60.6662 43.724C60.7029 43.7091 60.7362 43.6871 60.7642 43.6595C60.7921 43.6318 60.8143 43.599 60.8292 43.5629C60.8442 43.5268 60.8517 43.4882 60.8514 43.4493C60.8517 43.4104 60.8442 43.3719 60.8292 43.336C60.8142 43.3001 60.792 43.2674 60.764 43.24C60.736 43.2125 60.7027 43.1908 60.666 43.1761C60.6294 43.1614 60.5901 43.154 60.5505 43.1543H55.1843L53.9729 42.0234H60.5505C60.5896 42.0237 60.6285 42.0165 60.6648 42.0021C60.7011 41.9878 60.7342 41.9665 60.7622 41.9396C60.7901 41.9127 60.8124 41.8806 60.8277 41.8453C60.843 41.81 60.851 41.772 60.8514 41.7336C60.8517 41.6948 60.8442 41.6563 60.8292 41.6204C60.8142 41.5844 60.792 41.5518 60.764 41.5243C60.736 41.4969 60.7027 41.4752 60.666 41.4605C60.6294 41.4458 60.5901 41.4384 60.5505 41.4387H53.3397L52.1231 40.3026H60.5479C60.5875 40.303 60.6268 40.2956 60.6634 40.2809C60.7001 40.2662 60.7334 40.2445 60.7614 40.217C60.7894 40.1896 60.8116 40.1569 60.8266 40.121C60.8415 40.085 60.8491 40.0465 60.8487 40.0077C60.8491 39.9689 60.8415 39.9304 60.8266 39.8945C60.8116 39.8585 60.7894 39.8259 60.7614 39.7984C60.7334 39.771 60.7001 39.7493 60.6634 39.7346C60.6268 39.7199 60.5875 39.7125 60.5479 39.7128H51.4926L50.2917 38.5819H60.5636C60.6032 38.5822 60.6425 38.5748 60.6791 38.5601C60.7158 38.5454 60.7491 38.5237 60.7771 38.4963C60.8051 38.4688 60.8273 38.4362 60.8423 38.4002C60.8572 38.3643 60.8648 38.3258 60.8644 38.287C60.8648 38.2481 60.8572 38.2096 60.8423 38.1737C60.8273 38.1378 60.8051 38.1051 60.7771 38.0777C60.7491 38.0502 60.7158 38.0285 60.6791 38.0138C60.6425 37.9991 60.6032 37.9917 60.5636 37.992H49.6454L48.9835 37.374C48.7899 37.1919 48.591 37.0201 48.3843 36.8611H60.5426C60.6224 36.8611 60.699 36.83 60.7554 36.7747C60.8118 36.7194 60.8435 36.6444 60.8435 36.5662C60.8444 36.5261 60.8373 36.4862 60.8225 36.4488C60.8077 36.4114 60.7855 36.3772 60.7572 36.3482C60.7003 36.2924 60.6231 36.261 60.5426 36.261H47.589C46.9131 35.8096 46.1894 35.4313 45.4304 35.1326H60.5505C60.5925 35.1365 60.6349 35.1317 60.675 35.1185C60.715 35.1054 60.7518 35.0842 60.783 35.0563C60.8143 35.0285 60.8392 34.9945 60.8563 34.9566C60.8733 34.9188 60.8821 34.8778 60.8821 34.8364C60.8821 34.7951 60.8733 34.7541 60.8563 34.7163C60.8392 34.6784 60.8143 34.6444 60.783 34.6166C60.7518 34.5887 60.715 34.5675 60.675 34.5543C60.6349 34.5412 60.5925 34.5364 60.5505 34.5402H43.3844C42.6801 34.4064 41.9643 34.3394 41.2469 34.3402H34.5332C34.4674 34.3404 34.4029 34.3214 34.3481 34.2857C34.2933 34.2499 34.2505 34.1989 34.2253 34.1393C34.2 34.0797 34.1935 34.014 34.2064 33.9507C34.2193 33.8874 34.2511 33.8293 34.2978 33.7837L34.6798 33.4119H60.5505C60.5925 33.4157 60.6349 33.4109 60.675 33.3978C60.715 33.3846 60.7518 33.3634 60.783 33.3356C60.8143 33.3077 60.8392 33.2737 60.8563 33.2359C60.8733 33.198 60.8821 33.1571 60.8821 33.1157C60.8821 33.0743 60.8733 33.0333 60.8563 32.9955C60.8392 32.9576 60.8143 32.9237 60.783 32.8958C60.7518 32.8679 60.715 32.8467 60.675 32.8336C60.6349 32.8204 60.5925 32.8156 60.5505 32.8195H35.2815L36.4249 31.6962H60.54C60.6198 31.6962 60.6964 31.6652 60.7528 31.6099C60.8092 31.5545 60.8409 31.4795 60.8409 31.4013C60.8409 31.3231 60.8092 31.2481 60.7528 31.1928C60.6964 31.1375 60.6198 31.1064 60.54 31.1064H37.0371L38.1909 29.9755H60.5505C60.6303 29.9755 60.7068 29.9444 60.7632 29.8891C60.8197 29.8338 60.8514 29.7588 60.8514 29.6806C60.8514 29.6023 60.8197 29.5273 60.7632 29.472C60.7068 29.4167 60.6303 29.3856 60.5505 29.3856H38.7927L39.9465 28.2547H60.5505C60.6303 28.2547 60.7068 28.2236 60.7632 28.1683C60.8197 28.113 60.8514 28.038 60.8514 27.9598C60.8514 27.8816 60.8197 27.8066 60.7632 27.7512C60.7068 27.6959 60.6303 27.6649 60.5505 27.6649H40.5509L41.7021 26.5339H60.54C60.6198 26.5339 60.6964 26.5029 60.7528 26.4476C60.8092 26.3922 60.8409 26.3172 60.8409 26.239C60.8409 26.1608 60.8092 26.0858 60.7528 26.0305C60.6964 25.9752 60.6198 25.9441 60.54 25.9441H42.3065L43.4603 24.808Z" fill="#C5A463"/>
</svg>
