<svg width="70" height="70" viewBox="0 0 70 70" fill="none" xmlns="http://www.w3.org/2000/svg">
<g id="time">
<path id="Vector" d="M35.0004 18.9579C35.0004 18.2602 35.0004 17.9113 35.2357 17.6946C35.4714 17.478 35.7998 17.5054 36.4569 17.5603C39.0207 17.7745 41.5121 18.5519 43.7504 19.8442C46.4106 21.3801 48.6197 23.5893 50.1559 26.2496C51.6918 28.91 52.5004 31.9278 52.5004 34.9996C52.5004 38.0714 51.6918 41.0893 50.1559 43.7496C48.6197 46.4099 46.4106 48.619 43.7504 50.1552C41.0901 51.6911 38.0722 52.4996 35.0004 52.4996C31.9285 52.4996 28.9107 51.6911 26.2504 50.1552C24.012 48.8628 22.0931 47.0939 20.6258 44.9807C20.2497 44.4391 20.0617 44.1682 20.1316 43.8561C20.2014 43.5437 20.5036 43.3693 21.1079 43.0204L34.2712 35.4205C34.627 35.2152 34.8049 35.1125 34.9026 34.9433C35.0004 34.7739 35.0004 34.5685 35.0004 34.1576V18.9579Z" fill="#C5A463"/>
<path id="Vector_2" d="M35 61.25C49.4975 61.25 61.25 49.4975 61.25 35C61.25 20.5025 49.4975 8.75 35 8.75C20.5025 8.75 8.75 20.5025 8.75 35C8.75 49.4975 20.5025 61.25 35 61.25Z" stroke="#C5A463" stroke-width="5.83333"/>
</g>
</svg>
