<svg width="70" height="70" viewBox="0 0 70 70" fill="none" xmlns="http://www.w3.org/2000/svg">
<g id="wallet">
<g id="Group 174">
<path id="Vector" d="M61.6924 28.4219H53.2817C50.9944 28.3999 48.7919 29.287 47.1582 30.8881C45.5246 32.4892 44.5934 34.6733 44.5692 36.9606C44.4528 39.1443 44.5201 41.3339 44.7704 43.5064C45.1014 45.4004 46.0748 47.1226 47.5268 48.3831C48.9787 49.6435 50.8205 50.3653 52.7423 50.427C55.4301 50.5184 58.1179 50.427 60.8148 50.427H61.6467C62.7072 57.5395 57.8162 62.3117 52.4132 62.3117C39.0657 62.3849 25.7151 62.3849 12.3615 62.3117C9.8979 62.2605 7.54912 61.2603 5.80498 59.5196C4.06085 57.7788 3.05601 55.432 3 52.9685C3 43.9452 3 34.9311 3 25.9169C3.01259 25.2513 3.09843 24.5891 3.25598 23.9422C3.71872 21.9466 4.80774 20.1514 6.36381 18.819C7.91988 17.4867 9.86138 16.6871 11.9044 16.5371C12.3341 16.5371 12.7638 16.5371 13.1935 16.5371H51.5538C55.8689 16.5371 59.0321 18.3655 60.9154 22.3241C61.8387 24.2074 61.7839 26.2826 61.6924 28.4219Z" fill="#C5A463"/>
<path id="Vector_2" d="M57.7431 46.3683C56.2986 46.3683 54.845 46.3683 53.3914 46.3683C52.7579 46.3968 52.1254 46.2931 51.5342 46.064C50.9429 45.8348 50.4058 45.4851 49.9569 45.0371C49.5081 44.5892 49.1574 44.0527 48.9271 43.4619C48.6968 42.8711 48.5919 42.2388 48.6192 41.6052C48.6192 40.1608 48.6192 38.7072 48.6192 37.2536C48.6012 36.6269 48.7122 36.0032 48.9454 35.4213C49.1787 34.8394 49.5291 34.3116 49.975 33.8709C50.4208 33.4302 50.9526 33.0859 51.5372 32.8594C52.1218 32.633 52.7467 32.5292 53.3731 32.5545C56.3474 32.5545 59.3216 32.5545 62.2958 32.5545C62.9209 32.5366 63.543 32.6471 64.1237 32.8792C64.7043 33.1114 65.2311 33.4601 65.6716 33.904C66.112 34.3479 66.4567 34.8774 66.6844 35.4599C66.912 36.0423 67.0177 36.6652 66.9949 37.2901C66.9949 38.7255 66.9949 40.1516 66.9949 41.5778C67.0245 42.2104 66.9223 42.8423 66.6949 43.4334C66.4674 44.0245 66.1196 44.5618 65.6734 45.0114C65.2273 45.4609 64.6927 45.8128 64.1034 46.0449C63.5141 46.2769 62.883 46.3839 62.2501 46.3591C60.7417 46.3774 59.2424 46.3683 57.7431 46.3683Z" fill="#C5A463"/>
<path id="Vector_3" d="M10.8892 12.4875C10.7874 11.8304 10.8242 11.1592 10.9974 10.5172C11.1706 9.87526 11.4763 9.27665 11.8949 8.75995C12.3134 8.24325 12.8355 7.81991 13.4275 7.51717C14.0195 7.21443 14.6684 7.039 15.3323 7.00218H48.957C49.6317 6.98198 50.3032 7.10245 50.9289 7.35592C51.5545 7.60939 52.1205 7.99031 52.5908 8.47444C53.0612 8.95858 53.4257 9.53532 53.661 10.168C53.8963 10.8006 53.9974 11.4754 53.9578 12.1492C53.9578 12.2406 53.9578 12.332 53.9578 12.4417L10.8892 12.4875Z" fill="#C5A463"/>
</g>
</g>
</svg>
