<svg width="50" height="50" viewBox="0 0 50 50" fill="none" xmlns="http://www.w3.org/2000/svg">
<path d="M45.008 27.8083C45.008 32.6529 45.0175 37.4975 45.008 42.3402C44.9984 45.9656 42.7255 48.9328 39.3017 49.7735C38.6521 49.9247 37.9867 49.9974 37.3197 49.9904C29.099 50.003 20.8769 50.003 12.6536 49.9904C8.25786 49.9885 4.99579 46.7283 4.98438 42.3269C4.98438 30.7838 4.98438 19.2394 4.98438 7.69379C4.99579 3.25433 8.25025 0.0150844 12.6992 0.00176982C19.0255 0.00176982 25.3538 0.00176982 31.682 0.00176982C32.7386 -0.0209945 33.7884 0.176063 34.7648 0.580443C35.7412 0.984823 36.6229 1.5877 37.354 2.35084C39.0659 4.08554 40.7777 5.82594 42.5372 7.5264C44.249 9.19072 45.0289 11.1936 45.0099 13.5674C44.9908 18.315 45.008 23.0607 45.008 27.8083ZM32.498 2.4973H31.6953C25.388 2.4973 19.0807 2.4973 12.7734 2.4973C9.62926 2.4973 7.51224 4.58959 7.51034 7.74324C7.51034 19.247 7.51034 30.7508 7.51034 42.2546C7.51034 45.4025 9.62545 47.5043 12.7696 47.5043C20.9118 47.5043 29.0546 47.5043 37.198 47.5043C40.3783 47.5043 42.4858 45.4121 42.4858 42.2204C42.4858 32.592 42.4858 22.9631 42.4858 13.3335C42.4858 13.0672 42.4573 12.8028 42.4402 12.487H41.7535C40.2889 12.487 38.8243 12.5118 37.3616 12.4718C36.2084 12.4569 35.0974 12.0355 34.2244 11.2818C33.3514 10.5282 32.7724 9.4906 32.5893 8.35191C32.5236 7.91122 32.4937 7.46595 32.4999 7.02045C32.4923 5.53683 32.498 4.05701 32.498 2.4973ZM41.084 9.98389L35.0087 3.8725C35.0087 5.07462 34.9498 6.39847 35.0258 7.71661C35.0467 8.29206 35.2791 8.83959 35.6785 9.2544C36.0778 9.66922 36.6162 9.92218 37.1904 9.96487C38.5466 10.0429 39.9104 9.98389 41.084 9.98389Z" fill="#C5A463"/>
<path d="M23.7389 26.1782V25.56C23.7389 22.8248 23.7389 20.0909 23.7389 17.3583C23.7308 17.1241 23.7449 16.8898 23.7807 16.6583C23.8287 16.3665 23.9804 16.1017 24.2078 15.9127C24.4353 15.7237 24.7233 15.6231 25.019 15.6293C25.3053 15.6317 25.5815 15.7351 25.7989 15.9213C26.0164 16.1075 26.1612 16.3644 26.2078 16.6469C26.2459 16.8775 26.2612 17.1113 26.2534 17.3449C26.2534 20.0776 26.2534 22.8115 26.2534 25.5467V26.3532L27.9121 24.6965C28.2925 24.3161 28.6729 23.9128 29.0761 23.54C29.6468 23.0074 30.3486 22.9941 30.8565 23.4849C31.3643 23.9756 31.3757 24.7535 30.8222 25.3128C29.1738 26.979 27.5158 28.6344 25.8483 30.2791C25.7345 30.3953 25.5984 30.4871 25.448 30.549C25.2977 30.611 25.1363 30.6417 24.9737 30.6394C24.8112 30.6371 24.6508 30.6018 24.5022 30.5356C24.3537 30.4694 24.2202 30.3737 24.1098 30.2544C22.4765 28.6313 20.8471 27.0031 19.2215 25.3698C18.6299 24.7745 18.6014 24.0136 19.1187 23.5001C19.6361 22.9865 20.376 23.0036 20.9828 23.6085C21.8558 24.4739 22.7099 25.3584 23.5715 26.2353L23.7389 26.1782Z" fill="#C5A463"/>
<path d="M24.9695 34.38C23.3318 34.38 21.6923 34.38 20.0527 34.38C19.105 34.3959 18.1866 34.0511 17.4835 33.4154C16.7804 32.7798 16.3451 31.9007 16.2656 30.9562C16.1743 30.1269 16.5947 29.5145 17.3308 29.4022C18.0669 29.29 18.6204 29.7827 18.7554 30.6177C18.9 31.5174 19.2937 31.8864 20.1953 31.8902C23.3972 31.8978 26.5977 31.8978 29.797 31.8902C30.7005 31.8902 31.098 31.5193 31.2407 30.6196C31.3757 29.7808 31.9426 29.2881 32.6635 29.4022C33.3843 29.5164 33.8218 30.125 33.7305 30.9524C33.652 31.8966 33.2174 32.7756 32.515 33.4114C31.8125 34.0471 30.8946 34.392 29.9473 34.3762C28.2887 34.3895 26.6301 34.38 24.9695 34.38Z" fill="#C5A463"/>
</svg>
